# xmcd CD database file
#
# Track frame offsets:
#	150
#	14196
#	33974
#	52263
#	82115
#	107607
#	120379
#	129880
#	154558
#	190564
#	208572
#
# Disc length: 2881 seconds
#
# Revision: 2
# Processed by: cddbd v1.5.2PL0 Copyright (c) Steve Scherf et al.
# Submitted via: CDex 1.51
#
DISCID=8a0b3f0b
DTITLE=Mozart - Quatuors à cordes  (Festetics Quartet)  [CD 1-2]
DYEAR=1900
DGENRE=Classique
TTITLE0=Quatuor à cordes N°7 en mi bémol majeur - I. Allegro
TTITLE1=Quatuor à cordes N°7 en mi bémol majeur - II. Un poco adagio
TTITLE2=Quatuor à cordes N°7 en mi bémol majeur - III. Presto
TTITLE3=Quatuor à cordes N°8 en fa majeur - I. Allegro
TTITLE4=Quatuor à cordes N°8 en fa majeur - II. Andante
TTITLE5=Quatuor à cordes N°8 en fa majeur - III. Menuetto
TTITLE6=Quatuor à cordes N°8 en fa majeur - IV. Allegro
TTITLE7=Quatuor à cordes N°9 en la majeur - I. Molto allegro
TTITLE8=Quatuor à cordes N°9 en la majeur - II. Andante
TTITLE9=Quatuor à cordes N°9 en la majeur - III. Menuetto
TTITLE10=Quatuor à cordes N°9 en la majeur - IV. Rondeaux - Allegro
EXTD=
EXTT0=
EXTT1=
EXTT2=
EXTT3=
EXTT4=
EXTT5=
EXTT6=
EXTT7=
EXTT8=
EXTT9=
EXTT10=
PLAYORDER=
